<svg width="186" height="94" viewBox="0 0 186 94" fill="none" xmlns="http://www.w3.org/2000/svg">
<path d="M98.45 10.3227L90.9409 16.4595L141.002 57.3714L148.511 51.2346L98.45 10.3227Z" fill="#06113C"/>
<path d="M103.793 6.13679L96.2839 0L33.7081 51.1399L41.2172 57.2767L103.793 6.13679Z" fill="#06113C"/>
<rect x="82" y="35" width="4" height="13" fill="#06113C"/>
<rect x="97" y="35" width="4" height="13" fill="#06113C"/>
<rect x="90" y="35" width="3" height="13" fill="#06113C"/>
<rect x="85" y="48" width="3" height="12" transform="rotate(-90 85 48)" fill="#06113C"/>
<rect x="82" y="37" width="3" height="19" transform="rotate(-90 82 37)" fill="#06113C"/>
<rect x="85" y="42" width="2" height="12" transform="rotate(-90 85 42)" fill="#06113C"/>
<path d="M69.2991 61.2244C69.0312 60.5145 68.6609 59.8789 68.189 59.3177C67.7278 58.7481 67.1699 58.2615 66.5158 57.8582C65.8722 57.455 65.132 57.1527 64.2952 56.951C63.4584 56.7404 62.5469 56.6354 61.56 56.6354C59.7901 56.6354 58.2131 56.9991 56.8294 57.7266C55.4457 58.4545 54.3568 59.524 53.5632 60.9351C52.7802 62.3379 52.3887 64.0473 52.3887 66.0637C52.3887 68.0974 52.7802 69.8199 53.5632 71.2313C54.3462 72.6428 55.435 73.7166 56.8294 74.4532C58.2241 75.1807 59.8435 75.5443 61.6885 75.5443C63.3621 75.5443 64.8103 75.2814 66.0329 74.7555C67.2666 74.2295 68.2159 73.4843 68.8811 72.5201C69.5458 71.5469 69.8786 70.4074 69.8786 69.1013L71.2301 69.2722H62.2839V65.4588H75.6549V68.6936C75.6549 70.999 75.0542 72.9934 73.8527 74.6765C72.6513 76.3599 70.9993 77.657 68.897 78.5689C66.7947 79.4718 64.3812 79.9234 61.6566 79.9234C58.6209 79.9234 55.955 79.3665 53.6598 78.2533C51.3749 77.1311 49.589 75.54 48.3016 73.48C47.0251 71.411 46.3869 68.9566 46.3869 66.1161C46.3869 63.942 46.7625 62.0003 47.5133 60.2909C48.275 58.5815 49.337 57.1307 50.6991 55.9385C52.0612 54.7374 53.6598 53.8258 55.4938 53.2033C57.3281 52.572 59.3235 52.2564 61.4796 52.2564C63.303 52.2564 65.0032 52.4757 66.5802 52.914C68.1568 53.3436 69.5568 53.9572 70.7795 54.755C72.0131 55.5526 73.0269 56.4994 73.8205 57.5953C74.6145 58.6911 75.1345 59.9009 75.3812 61.2244H69.2991ZM90.4892 79.5551V52.6247H102.846C105.378 52.6247 107.502 53.0103 109.218 53.7818C110.945 54.5534 112.248 55.6139 113.128 56.964C114.018 58.3052 114.463 59.8306 114.463 61.5401C114.463 63.2671 114.018 64.8012 113.128 66.1424C112.238 67.4838 110.924 68.54 109.186 69.3116C107.448 70.0741 105.308 70.4554 102.766 70.4554H94.5759V66.445H101.961C103.442 66.445 104.654 66.2347 105.598 65.8138C106.542 65.3928 107.239 64.8143 107.69 64.078C108.151 63.3418 108.381 62.4956 108.381 61.5401C108.381 60.5845 108.151 59.743 107.69 59.0154C107.239 58.2878 106.536 57.7223 105.582 57.319C104.638 56.9071 103.42 56.7011 101.929 56.7011H96.4584V79.5551H90.4892ZM134.68 52.6247V79.5551H128.71V52.6247H134.68Z" fill="#06113C"/>
<path d="M4.03681 85.6588C3.9949 85.548 3.93709 85.4488 3.86333 85.3612C3.79125 85.2721 3.7041 85.196 3.60187 85.1329C3.50131 85.0698 3.38566 85.0227 3.25494 84.9912C3.12421 84.9585 2.98173 84.942 2.82754 84.942C2.55097 84.942 2.3046 84.9987 2.08839 85.1124C1.87217 85.2261 1.70205 85.3933 1.57805 85.6137C1.45568 85.833 1.39451 86.1 1.39451 86.415C1.39451 86.733 1.45568 87.002 1.57805 87.2225C1.70039 87.4432 1.87051 87.611 2.08839 87.7258C2.30626 87.8395 2.55936 87.8965 2.84764 87.8965C3.10909 87.8965 3.33536 87.8554 3.52644 87.7733C3.71918 87.6911 3.86754 87.5745 3.97143 87.4238C4.07536 87.2719 4.12733 87.0937 4.12733 86.8898L4.33848 86.9164H2.94067V86.3204H5.02987V86.8261C5.02987 87.1863 4.936 87.4979 4.74828 87.7608C4.56056 88.0238 4.30248 88.2266 3.97394 88.3689C3.64545 88.5101 3.26832 88.5807 2.84262 88.5807C2.36828 88.5807 1.95179 88.4936 1.59313 88.3197C1.2361 88.1444 0.95706 87.8956 0.755927 87.5739C0.556493 87.2505 0.456741 86.8672 0.456741 86.4231C0.456741 86.0835 0.515432 85.7801 0.632741 85.513C0.75175 85.246 0.917661 85.0192 1.13055 84.8329C1.3434 84.6454 1.59313 84.5028 1.87971 84.4056C2.16633 84.307 2.47809 84.2578 2.81497 84.2578C3.09989 84.2578 3.36556 84.2919 3.61193 84.3605C3.8583 84.4276 4.07702 84.5234 4.2681 84.6481C4.46085 84.7727 4.61922 84.9206 4.74325 85.0918C4.86729 85.2631 4.94856 85.452 4.98711 85.6588H4.03681ZM7.34771 88.5231V84.3154H10.6965V84.9541H8.28046V86.0965H10.523V86.7356H8.28046V87.8841H10.7166V88.5231H7.34771ZM15.8622 85.472C15.8387 85.2926 15.7398 85.1529 15.5655 85.0528C15.3928 84.953 15.1683 84.9029 14.8917 84.9029C14.6973 84.9029 14.5305 84.9269 14.3914 84.9747C14.2523 85.0227 14.1459 85.0878 14.0721 85.1699C13.9984 85.2521 13.9607 85.3461 13.959 85.4514C13.959 85.5391 13.9833 85.6152 14.0319 85.6794C14.0822 85.7439 14.15 85.7986 14.2355 85.844C14.321 85.8877 14.4157 85.9247 14.5196 85.9548C14.6235 85.9849 14.7283 86.0103 14.8339 86.0309L15.3166 86.1295C15.511 86.1665 15.6979 86.2166 15.8772 86.2794C16.0583 86.3424 16.22 86.422 16.3624 86.5177C16.5066 86.6138 16.6206 86.7295 16.7043 86.8649C16.7882 87.0006 16.8301 87.1594 16.8301 87.3416C16.8301 87.5881 16.753 87.8054 16.5988 87.9931C16.4446 88.1794 16.2217 88.3252 15.93 88.4305C15.6401 88.5347 15.289 88.5868 14.8766 88.5868C14.4761 88.5868 14.1283 88.5361 13.8333 88.4349C13.54 88.3333 13.3104 88.1855 13.1444 87.9911C12.9802 87.7964 12.8914 87.5595 12.8779 87.28H13.7956C13.809 87.4267 13.8643 87.5485 13.9615 87.6457C14.0587 87.7432 14.1853 87.8155 14.3411 87.8635C14.4987 87.9116 14.6747 87.9356 14.8691 87.9356C15.0719 87.9356 15.2496 87.911 15.4021 87.8615C15.5563 87.8109 15.677 87.7409 15.7641 87.6521C15.8513 87.5615 15.8957 87.4562 15.8973 87.3356C15.8957 87.2259 15.8563 87.1357 15.7792 87.0642C15.7021 86.9916 15.594 86.9314 15.4549 86.8834C15.3174 86.8342 15.1565 86.7903 14.9722 86.7521L14.3864 86.6288C13.9623 86.5397 13.6271 86.4049 13.3807 86.2241C13.1361 86.0419 13.0137 85.8 13.0137 85.4986C13.0137 85.2507 13.0958 85.0337 13.2601 84.8474C13.426 84.6611 13.6514 84.5167 13.9364 84.4137C14.2213 84.3099 14.5439 84.2578 14.9043 84.2578C15.2697 84.2578 15.5898 84.3099 15.8647 84.4137C16.1412 84.5167 16.3583 84.6596 16.5158 84.8433C16.6733 85.0256 16.7547 85.235 16.7597 85.472H15.8622ZM18.8513 84.9541V84.3154H22.9593V84.9541H21.3679V88.5231H20.4427V84.9541H18.8513ZM29.5398 86.4191C29.5398 86.8727 29.4357 87.2609 29.228 87.5841C29.0219 87.9061 28.7402 88.1525 28.3833 88.3238C28.028 88.4951 27.6248 88.5807 27.174 88.5807C26.7231 88.5807 26.3192 88.4951 25.9622 88.3238C25.6069 88.1511 25.3253 87.904 25.1175 87.582C24.9113 87.2589 24.8082 86.8713 24.8082 86.4191C24.8082 85.9658 24.9113 85.5781 25.1175 85.2561C25.3253 84.933 25.6069 84.6857 25.9622 84.5144C26.3192 84.3434 26.7231 84.2578 27.174 84.2578C27.6248 84.2578 28.028 84.3434 28.3833 84.5144C28.7402 84.6857 29.0219 84.933 29.228 85.2561C29.4357 85.5781 29.5398 85.9658 29.5398 86.4191ZM28.6021 86.4191C28.6021 86.1 28.5409 85.831 28.4184 85.6117C28.2978 85.3912 28.1302 85.2246 27.9156 85.1124C27.7011 84.9987 27.4539 84.942 27.174 84.942C26.8941 84.942 26.6469 84.9987 26.4324 85.1124C26.2178 85.2246 26.0494 85.3912 25.927 85.6117C25.8063 85.831 25.746 86.1 25.746 86.4191C25.746 86.7382 25.8063 87.0081 25.927 87.2288C26.0494 87.4478 26.2178 87.6142 26.4324 87.7279C26.6469 87.8404 26.8941 87.8965 27.174 87.8965C27.4539 87.8965 27.7011 87.8404 27.9156 87.7279C28.1302 87.6142 28.2978 87.4478 28.4184 87.2288C28.5409 87.0081 28.6021 86.7382 28.6021 86.4191ZM31.8375 88.5231V84.3154H33.7681C34.1639 84.3154 34.4956 84.3715 34.7639 84.4837C35.0336 84.596 35.2375 84.7537 35.3749 84.9562C35.514 85.1575 35.5834 85.3927 35.5834 85.6612C35.5834 85.9308 35.5129 86.1651 35.3724 86.3638C35.2333 86.5609 35.028 86.7136 34.7565 86.8218C34.485 86.9288 34.1511 86.9821 33.7557 86.9821H32.3805V86.3494H33.6301C33.8612 86.3494 34.0506 86.3233 34.1982 86.2713C34.3458 86.2178 34.4545 86.1405 34.525 86.039C34.5972 85.9363 34.6333 85.8104 34.6333 85.6612C34.6333 85.5116 34.5972 85.3843 34.525 85.279C34.4531 85.172 34.3434 85.0912 34.1957 85.0363C34.0481 84.9802 33.858 84.9521 33.6251 84.9521H32.7703V88.5231H31.8375ZM34.4973 86.6164L35.772 88.5231H34.7313L33.4793 86.6164H34.4973ZM42.7749 88.5231H41.0301V84.3154H42.8099C43.3211 84.3154 43.7603 84.3996 44.1274 84.5679C44.4959 84.7351 44.7795 84.9755 44.977 85.2891C45.1749 85.6027 45.2736 85.9782 45.2736 86.415C45.2736 86.8533 45.1742 87.23 44.9745 87.545C44.7766 87.8601 44.491 88.1019 44.1172 88.2703C43.7451 88.4389 43.2977 88.5231 42.7749 88.5231ZM41.9628 87.8635H42.7295C43.0881 87.8635 43.3872 87.8103 43.6269 87.7033C43.8665 87.5951 44.0467 87.4342 44.1674 87.2204C44.2881 87.0055 44.3487 86.737 44.3487 86.415C44.3487 86.0931 44.2881 85.826 44.1674 85.6137C44.0467 85.4002 43.8683 85.2405 43.6322 85.1349C43.3975 85.0282 43.1058 84.9747 42.7572 84.9747H41.9628V87.8635ZM47.5759 88.5231V84.3154H50.9246V84.9541H48.5087V86.0965H50.7511V86.7356H48.5087V87.8841H50.9448V88.5231H47.5759ZM56.4641 88.5231V84.3154H58.395C58.7904 84.3154 59.1225 84.3755 59.3904 84.4962C59.6605 84.6165 59.8641 84.7823 60.0014 84.9932C60.1405 85.2029 60.2103 85.4413 60.2103 85.7083C60.2103 85.9782 60.1405 86.2178 60.0014 86.4275C59.8623 86.6369 59.657 86.8021 59.3855 86.9225C59.114 87.0417 58.7795 87.1012 58.3823 87.1012H57.1026V86.4746H58.2566C58.4881 86.4746 58.6775 86.4417 58.8248 86.376C58.9724 86.3103 59.0814 86.2198 59.1518 86.1049C59.2237 85.9898 59.2598 85.8576 59.2598 85.7083C59.2598 85.559 59.2237 85.4274 59.1518 85.3137C59.0814 85.2 58.9717 85.1118 58.8223 85.0487C58.6747 84.9845 58.4846 84.9521 58.2517 84.9521H57.3968V88.5231H56.4641ZM62.4361 88.5231V84.3154H64.3671C64.7625 84.3154 65.0945 84.3715 65.3625 84.4837C65.6326 84.596 65.8361 84.7537 65.9734 84.9562C66.1126 85.1575 66.1823 85.3927 66.1823 85.6612C66.1823 85.9308 66.1118 86.1651 65.971 86.3638C65.8318 86.5609 65.6265 86.7136 65.355 86.8218C65.0835 86.9288 64.7501 86.9821 64.3543 86.9821H62.9791V86.3494H64.2287C64.4602 86.3494 64.6496 86.3233 64.7968 86.2713C64.9444 86.2178 65.0534 86.1405 65.1239 86.039C65.1957 85.9363 65.2318 85.8104 65.2318 85.6612C65.2318 85.5116 65.1957 85.3843 65.1239 85.279C65.0517 85.172 64.9419 85.0912 64.7943 85.0363C64.6471 84.9802 64.4566 84.9521 64.2237 84.9521H63.3688V88.5231H62.4361ZM65.0963 86.6164L66.3706 88.5231H65.3299L64.0779 86.6164H65.0963ZM73.0573 86.4191C73.0573 86.8727 72.9536 87.2609 72.7458 87.5841C72.5395 87.9061 72.258 88.1525 71.9009 88.3238C71.5455 88.4951 71.1426 88.5807 70.6917 88.5807C70.2407 88.5807 69.8368 88.4951 69.48 88.3238C69.1246 88.1511 68.8432 87.904 68.635 87.582C68.429 87.2589 68.326 86.8713 68.326 86.4191C68.326 85.9658 68.429 85.5781 68.635 85.2561C68.8432 84.933 69.1246 84.6857 69.48 84.5144C69.8368 84.3434 70.2407 84.2578 70.6917 84.2578C71.1426 84.2578 71.5455 84.3434 71.9009 84.5144C72.258 84.6857 72.5395 84.933 72.7458 85.2561C72.9536 85.5781 73.0573 85.9658 73.0573 86.4191ZM72.1196 86.4191C72.1196 86.1 72.0584 85.831 71.9363 85.6117C71.8156 85.3912 71.6478 85.2246 71.4333 85.1124C71.2188 84.9987 70.9717 84.942 70.6917 84.942C70.4117 84.942 70.1646 84.9987 69.9501 85.1124C69.7356 85.2246 69.5671 85.3912 69.4446 85.6117C69.3239 85.831 69.2637 86.1 69.2637 86.4191C69.2637 86.7382 69.3239 87.0081 69.4446 87.2288C69.5671 87.4478 69.7356 87.6142 69.9501 87.7279C70.1646 87.8404 70.4117 87.8965 70.6917 87.8965C70.9717 87.8965 71.2188 87.8404 71.4333 87.7279C71.6478 87.6142 71.8156 87.4478 71.9363 87.2288C72.0584 87.0081 72.1196 86.7382 72.1196 86.4191ZM74.7129 84.3154H75.7664L77.0258 86.1767H77.0761L78.3356 84.3154H79.389L77.5161 86.9534V88.5231H76.5858V86.9534L74.7129 84.3154ZM81.4655 88.5231V84.3154H84.8141V84.9541H82.3982V86.0965H84.6407V86.7356H82.3982V87.8841H84.8343V88.5231H81.4655ZM91.589 85.7349H90.6488C90.6219 85.6091 90.5724 85.4974 90.5005 85.4002C90.4283 85.3016 90.3387 85.218 90.2315 85.1494C90.1242 85.0808 90.0018 85.0296 89.8644 84.9952C89.7285 84.9596 89.5819 84.942 89.4244 84.942C89.1444 84.942 88.8963 84.9995 88.6803 85.1144C88.4641 85.2281 88.2949 85.3953 88.1724 85.6157C88.0499 85.835 87.9887 86.1029 87.9887 86.4191C87.9887 86.7411 88.0499 87.0121 88.1724 87.2329C88.2963 87.4519 88.4655 87.6176 88.6803 87.7302C88.8963 87.841 89.1437 87.8965 89.4219 87.8965C89.5759 87.8965 89.72 87.88 89.8541 87.847C89.9901 87.8129 90.1115 87.7629 90.2188 87.6972C90.3278 87.6315 90.4191 87.5505 90.4927 87.4548C90.5681 87.3587 90.6202 87.2494 90.6488 87.1258L91.589 87.1302C91.5536 87.3301 91.4775 87.5178 91.3603 87.6931C91.2446 87.8684 91.0927 88.0232 90.9051 88.1574C90.7175 88.2902 90.4977 88.3944 90.2464 88.4696C89.995 88.5437 89.7161 88.5807 89.4092 88.5807C88.9568 88.5807 88.5529 88.4951 88.1975 88.3238C87.8421 88.1525 87.5621 87.9055 87.3579 87.582C87.1533 87.2589 87.051 86.8713 87.051 86.4191C87.051 85.9658 87.154 85.5781 87.3603 85.2561C87.5664 84.933 87.8471 84.6857 88.2025 84.5144C88.5579 84.3434 88.96 84.2578 89.4092 84.2578C89.6959 84.2578 89.9625 84.2905 90.2088 84.3564C90.4552 84.4221 90.6747 84.5187 90.8672 84.646C91.0602 84.7722 91.2184 84.9269 91.3426 85.1103C91.4683 85.2926 91.5504 85.5009 91.589 85.7349ZM93.6329 84.9541V84.3154H97.7409V84.9541H96.1494V88.5231H95.2241V84.9541H93.6329ZM104.321 86.4191C104.321 86.8727 104.217 87.2609 104.01 87.5841C103.804 87.9061 103.522 88.1525 103.165 88.3238C102.81 88.4951 102.406 88.5807 101.955 88.5807C101.505 88.5807 101.101 88.4951 100.744 88.3238C100.388 88.1511 100.107 87.904 99.8991 87.582C99.6927 87.2589 99.5897 86.8713 99.5897 86.4191C99.5897 85.9658 99.6927 85.5781 99.8991 85.2561C100.107 84.933 100.388 84.6857 100.744 84.5144C101.101 84.3434 101.505 84.2578 101.955 84.2578C102.406 84.2578 102.81 84.3434 103.165 84.5144C103.522 84.6857 103.804 84.933 104.01 85.2561C104.217 85.5781 104.321 85.9658 104.321 86.4191ZM103.383 86.4191C103.383 86.1 103.322 85.831 103.2 85.6117C103.079 85.3912 102.912 85.2246 102.697 85.1124C102.482 84.9987 102.235 84.942 101.955 84.942C101.676 84.942 101.428 84.9987 101.214 85.1124C100.999 85.2246 100.831 85.3912 100.709 85.6117C100.588 85.831 100.527 86.1 100.527 86.4191C100.527 86.7382 100.588 87.0081 100.709 87.2288C100.831 87.4478 100.999 87.6142 101.214 87.7279C101.428 87.8404 101.676 87.8965 101.955 87.8965C102.235 87.8965 102.482 87.8404 102.697 87.7279C102.912 87.6142 103.079 87.4478 103.2 87.2288C103.322 87.0081 103.383 86.7382 103.383 86.4191ZM109.417 85.472C109.394 85.2926 109.295 85.1529 109.12 85.0528C108.948 84.953 108.723 84.9029 108.447 84.9029C108.252 84.9029 108.086 84.9269 107.947 84.9747C107.807 85.0227 107.701 85.0878 107.627 85.1699C107.553 85.2521 107.516 85.3461 107.514 85.4514C107.514 85.5391 107.538 85.6152 107.587 85.6794C107.637 85.7439 107.705 85.7986 107.79 85.844C107.876 85.8877 107.971 85.9247 108.075 85.9548C108.178 85.9849 108.283 86.0103 108.389 86.0309L108.871 86.1295C109.066 86.1665 109.253 86.2166 109.432 86.2794C109.613 86.3424 109.775 86.422 109.918 86.5177C110.062 86.6138 110.176 86.7295 110.259 86.8649C110.343 87.0006 110.385 87.1594 110.385 87.3416C110.385 87.5881 110.308 87.8054 110.154 87.9931C110 88.1794 109.777 88.3252 109.485 88.4305C109.195 88.5347 108.844 88.5868 108.431 88.5868C108.031 88.5868 107.683 88.5361 107.388 88.4349C107.095 88.3333 106.865 88.1855 106.699 87.9911C106.535 87.7964 106.446 87.5595 106.433 87.28H107.35C107.364 87.4267 107.419 87.5485 107.516 87.6457C107.614 87.7432 107.74 87.8155 107.896 87.8635C108.054 87.9116 108.23 87.9356 108.424 87.9356C108.627 87.9356 108.805 87.911 108.957 87.8615C109.111 87.8109 109.232 87.7409 109.319 87.6521C109.406 87.5615 109.451 87.4562 109.452 87.3356C109.451 87.2259 109.411 87.1357 109.334 87.0642C109.257 86.9916 109.149 86.9314 109.01 86.8834C108.873 86.8342 108.711 86.7903 108.527 86.7521L107.942 86.6288C107.518 86.5397 107.182 86.4049 106.936 86.2241C106.691 86.0419 106.569 85.8 106.569 85.4986C106.569 85.2507 106.651 85.0337 106.815 84.8474C106.981 84.6611 107.206 84.5167 107.491 84.4137C107.776 84.3099 108.099 84.2578 108.459 84.2578C108.825 84.2578 109.145 84.3099 109.42 84.4137C109.696 84.5167 109.913 84.6596 110.071 84.8433C110.228 85.0256 110.31 85.235 110.315 85.472H109.417ZM116.737 84.3154V88.5231H115.805V84.3154H116.737ZM123.394 84.3154V88.5231H122.565L120.139 85.6568H120.096V88.5231H119.163V84.3154H119.998L122.422 87.1834H122.467V84.3154H123.394ZM125.827 84.3154H126.968L128.497 87.3642H128.557L130.086 84.3154H131.227V88.5231H130.332V85.6322H130.284L128.861 88.5107H128.193L126.77 85.6261H126.722V88.5231H125.827V84.3154ZM138.259 86.4191C138.259 86.8727 138.155 87.2609 137.948 87.5841C137.742 87.9061 137.46 88.1525 137.103 88.3238C136.748 88.4951 136.344 88.5807 135.893 88.5807C135.443 88.5807 135.039 88.4951 134.682 88.3238C134.326 88.1511 134.045 87.904 133.837 87.582C133.631 87.2589 133.528 86.8713 133.528 86.4191C133.528 85.9658 133.631 85.5781 133.837 85.2561C134.045 84.933 134.326 84.6857 134.682 84.5144C135.039 84.3434 135.443 84.2578 135.893 84.2578C136.344 84.2578 136.748 84.3434 137.103 84.5144C137.46 84.6857 137.742 84.933 137.948 85.2561C138.155 85.5781 138.259 85.9658 138.259 86.4191ZM137.321 86.4191C137.321 86.1 137.261 85.831 137.138 85.6117C137.017 85.3912 136.85 85.2246 136.635 85.1124C136.421 84.9987 136.173 84.942 135.893 84.942C135.614 84.942 135.366 84.9987 135.152 85.1124C134.937 85.2246 134.769 85.3912 134.647 85.6117C134.526 85.831 134.465 86.1 134.465 86.4191C134.465 86.7382 134.526 87.0081 134.647 87.2288C134.769 87.4478 134.937 87.6142 135.152 87.7279C135.366 87.8404 135.614 87.8965 135.893 87.8965C136.173 87.8965 136.421 87.8404 136.635 87.7279C136.85 87.6142 137.017 87.4478 137.138 87.2288C137.261 87.0081 137.321 86.7382 137.321 86.4191ZM140.557 88.5231V84.3154H142.528C142.9 84.3154 143.21 84.3631 143.456 84.4591C143.704 84.5535 143.889 84.6831 144.011 84.8474C144.136 85.0117 144.198 85.198 144.198 85.4063C144.198 85.5776 144.157 85.7239 144.077 85.846C143.996 85.9664 143.888 86.0644 143.753 86.1396C143.617 86.2151 143.465 86.2692 143.297 86.3019V86.343C143.48 86.3514 143.655 86.3974 143.823 86.4807C143.992 86.5629 144.13 86.6795 144.238 86.8302C144.345 86.9809 144.399 87.1629 144.399 87.3766C144.399 87.5945 144.334 87.7903 144.205 87.9642C144.076 88.1369 143.881 88.2732 143.622 88.3733C143.362 88.4731 143.035 88.5231 142.641 88.5231H140.557ZM141.49 87.8861H142.493C142.831 87.8861 143.075 87.8334 143.224 87.7279C143.375 87.6211 143.451 87.4843 143.451 87.3171C143.451 87.1924 143.413 87.0801 143.338 86.98C143.262 86.8788 143.155 86.7992 143.016 86.7417C142.877 86.6829 142.711 86.6534 142.518 86.6534H141.49V87.8861ZM141.49 86.1049H142.412C142.573 86.1049 142.718 86.0809 142.847 86.0329C142.976 85.9837 143.078 85.9143 143.151 85.8255C143.227 85.7349 143.265 85.6282 143.265 85.5049C143.265 85.3418 143.194 85.2075 143.053 85.1022C142.914 84.9966 142.708 84.944 142.433 84.944H141.49V86.1049ZM147.559 84.3154V88.5231H146.626V84.3154H147.559ZM149.985 88.5231V84.3154H150.917V87.8841H153.185V88.5231H149.985ZM156.343 84.3154V88.5231H155.411V84.3154H156.343ZM159.43 88.5231H158.435L160.247 84.3154H161.399L163.214 88.5231H162.218L160.843 85.1783H160.803L159.43 88.5231ZM159.463 86.8733H162.178V87.4854H159.463V86.8733ZM165.308 88.5231V84.3154H167.239C167.635 84.3154 167.966 84.3715 168.235 84.4837C168.504 84.596 168.708 84.7537 168.845 84.9562C168.984 85.1575 169.054 85.3927 169.054 85.6612C169.054 85.9308 168.984 86.1651 168.843 86.3638C168.704 86.5609 168.498 86.7136 168.227 86.8218C167.955 86.9288 167.622 86.9821 167.227 86.9821H165.851V86.3494H167.101C167.332 86.3494 167.521 86.3233 167.669 86.2713C167.816 86.2178 167.925 86.1405 167.996 86.039C168.068 85.9363 168.104 85.8104 168.104 85.6612C168.104 85.5116 168.068 85.3843 167.996 85.279C167.924 85.172 167.814 85.0912 167.667 85.0363C167.519 84.9802 167.328 84.9521 167.096 84.9521H166.241V88.5231H165.308ZM167.968 86.6164L169.243 88.5231H168.202L166.95 86.6164H167.968ZM172.261 84.3154V88.5231H171.328V84.3154H172.261ZM179.288 86.4191C179.288 86.8727 179.184 87.2609 178.976 87.5841C178.77 87.9061 178.488 88.1525 178.132 88.3238C177.776 88.4951 177.373 88.5807 176.922 88.5807C176.471 88.5807 176.068 88.4951 175.71 88.3238C175.355 88.1511 175.074 87.904 174.866 87.582C174.66 87.2589 174.556 86.8713 174.556 86.4191C174.556 85.9658 174.66 85.5781 174.866 85.2561C175.074 84.933 175.355 84.6857 175.71 84.5144C176.068 84.3434 176.471 84.2578 176.922 84.2578C177.373 84.2578 177.776 84.3434 178.132 84.5144C178.488 84.6857 178.77 84.933 178.976 85.2561C179.184 85.5781 179.288 85.9658 179.288 86.4191ZM178.35 86.4191C178.35 86.1 178.289 85.831 178.167 85.6117C178.046 85.3912 177.879 85.2246 177.664 85.1124C177.45 84.9987 177.202 84.942 176.922 84.942C176.642 84.942 176.395 84.9987 176.181 85.1124C175.966 85.2246 175.798 85.3912 175.675 85.6117C175.555 85.831 175.494 86.1 175.494 86.4191C175.494 86.7382 175.555 87.0081 175.675 87.2288C175.798 87.4478 175.966 87.6142 176.181 87.7279C176.395 87.8404 176.642 87.8965 176.922 87.8965C177.202 87.8965 177.45 87.8404 177.664 87.7279C177.879 87.6142 178.046 87.4478 178.167 87.2288C178.289 87.0081 178.35 86.7382 178.35 86.4191ZM184.384 85.472C184.361 85.2926 184.262 85.1529 184.087 85.0528C183.915 84.953 183.69 84.9029 183.413 84.9029C183.219 84.9029 183.052 84.9269 182.913 84.9747C182.774 85.0227 182.668 85.0878 182.594 85.1699C182.52 85.2521 182.482 85.3461 182.481 85.4514C182.481 85.5391 182.505 85.6152 182.554 85.6794C182.604 85.7439 182.672 85.7986 182.758 85.844C182.843 85.8877 182.938 85.9247 183.041 85.9548C183.145 85.9849 183.25 86.0103 183.356 86.0309L183.839 86.1295C184.033 86.1665 184.22 86.2166 184.399 86.2794C184.58 86.3424 184.742 86.422 184.884 86.5177C185.028 86.6138 185.142 86.7295 185.226 86.8649C185.31 87.0006 185.352 87.1594 185.352 87.3416C185.352 87.5881 185.275 87.8054 185.121 87.9931C184.966 88.1794 184.743 88.3252 184.452 88.4305C184.162 88.5347 183.811 88.5868 183.399 88.5868C182.998 88.5868 182.65 88.5361 182.355 88.4349C182.062 88.3333 181.832 88.1855 181.666 87.9911C181.502 87.7964 181.413 87.5595 181.4 87.28H182.318C182.331 87.4267 182.386 87.5485 182.483 87.6457C182.581 87.7432 182.707 87.8155 182.863 87.8635C183.021 87.9116 183.196 87.9356 183.391 87.9356C183.594 87.9356 183.771 87.911 183.924 87.8615C184.078 87.8109 184.199 87.7409 184.286 87.6521C184.373 87.5615 184.417 87.4562 184.419 87.3356C184.417 87.2259 184.378 87.1357 184.301 87.0642C184.224 86.9916 184.116 86.9314 183.977 86.8834C183.839 86.8342 183.678 86.7903 183.494 86.7521L182.908 86.6288C182.484 86.5397 182.149 86.4049 181.903 86.2241C181.658 86.0419 181.536 85.8 181.536 85.4986C181.536 85.2507 181.618 85.0337 181.782 84.8474C181.948 84.6611 182.173 84.5167 182.458 84.4137C182.743 84.3099 183.066 84.2578 183.426 84.2578C183.791 84.2578 184.111 84.3099 184.387 84.4137C184.663 84.5167 184.88 84.6596 185.037 84.8433C185.195 85.0256 185.276 85.235 185.281 85.472H184.384Z" fill="#06113C"/>
</svg>
